# xmcd
#
# Track frame offsets:
#	150
#	17607
#	37145
#	53587
#	70682
#	92692
#	108887
#	125357
#	147577
#	162292
#
# Disc length: 2460 seconds
#
# Revision: 6
# Processed by: cddbd v1.5.2PL0 Copyright (c) Steve Scherf et al.
# Submitted via: EasyCDDAExtractor 15.3.0.1
#
DISCID=80099a0a
DTITLE=Ednita Nazario - Corazon
DYEAR=1999
DGENRE=Latin
TTITLE0=Quien Te Robo El Corazon
TTITLE1=Pienso En Ti
TTITLE2=Corazon De Cristal Y Algodon
TTITLE3=No Me Digas Adios
TTITLE4=Mas Grande Que Grande
TTITLE5=Perdiendo Tu Amor
TTITLE6=Corazon
TTITLE7=Di Tantas Veces
TTITLE8=Viene Y Va
TTITLE9=Tu Sabes Bien
EXTD=
EXTT0=
EXTT1=
EXTT2=
EXTT3=
EXTT4=
EXTT5=
EXTT6=
EXTT7=
EXTT8=
EXTT9=
PLAYORDER=
